<svg width="120" height="120" viewBox="0 0 120 120" fill="none" xmlns="http://www.w3.org/2000/svg">
<rect width="120" height="120" fill="#F1F1F1"/>
<path fill-rule="evenodd" clip-rule="evenodd" d="M78 78H43V42H78V78ZM67.1667 62.2759C68.5297 62.2759 69.7398 61.6259 70.5 60.6211C71.2602 61.6259 72.4703 62.2759 73.8333 62.2759C74.5923 62.2759 75.3038 62.0744 75.9167 61.7223V75.931H64.6667V67.2414H56.3333V75.931H45.0833V61.7223C45.6962 62.0744 46.4077 62.2759 47.1667 62.2759C48.5297 62.2759 49.7398 61.6259 50.5 60.6211C51.2602 61.6259 52.4703 62.2759 53.8333 62.2759C55.1963 62.2759 56.4065 61.6259 57.1667 60.6211C57.9269 61.6259 59.137 62.2759 60.5 62.2759C61.863 62.2759 63.0731 61.6259 63.8333 60.6211C64.5935 61.6259 65.8037 62.2759 67.1667 62.2759ZM45.0833 58.1379C45.0833 59.2806 46.0161 60.2069 47.1667 60.2069C48.3173 60.2069 49.25 59.2806 49.25 58.1379V56.8966H45.0833V58.1379ZM51.75 56.8966V58.1379C51.75 59.2806 52.6827 60.2069 53.8333 60.2069C54.9839 60.2069 55.9167 59.2806 55.9167 58.1379V56.8966H51.75ZM58.4167 56.8966V58.1379C58.4167 59.2806 59.3494 60.2069 60.5 60.2069C61.6506 60.2069 62.5833 59.2806 62.5833 58.1379V56.8966H58.4167ZM65.0833 56.8966H69.25V58.1379C69.25 59.2806 68.3173 60.2069 67.1667 60.2069C66.0161 60.2069 65.0833 59.2806 65.0833 58.1379V56.8966ZM71.75 56.8966V58.1379C71.75 59.2806 72.6827 60.2069 73.8333 60.2069C74.9839 60.2069 75.9167 59.2806 75.9167 58.1379V56.8966H71.75ZM75.9167 54.8276V44.069H71.75V54.8276H75.9167ZM69.6667 54.8276V44.069H65.0833V54.8276H69.6667ZM63 54.8276V44.069H58.4167V54.8276H63ZM56.3333 54.8276V44.069H51.75V54.8276H56.3333ZM49.6667 54.8276V44.069H45.0833V54.8276H49.6667ZM62.5833 69.3103V75.931H58.4167V69.3103H62.5833Z" fill="#1D4045"/>
</svg>
