<svg width="25" height="37" viewBox="0 0 25 37" fill="none" xmlns="http://www.w3.org/2000/svg">
<path d="M25 33.9167V9.82967C24.999 9.35215 24.8856 8.8814 24.6688 8.4545L22.5 4.16867V1.85C22.5 1.35935 22.3025 0.888795 21.9508 0.541853C21.5992 0.19491 21.1223 0 20.625 0H4.375C3.87772 0 3.40081 0.19491 3.04917 0.541853C2.69754 0.888795 2.5 1.35935 2.5 1.85V4.16867L0.33125 8.48533C0.119051 8.9029 0.00578333 9.36258 0 9.82967V33.9167C0 34.7344 0.32924 35.5187 0.915291 36.0969C1.50134 36.6752 2.2962 37 3.125 37H21.875C22.7038 37 23.4987 36.6752 24.0847 36.0969C24.6708 35.5187 25 34.7344 25 33.9167ZM3.75 1.85C3.75 1.68645 3.81585 1.5296 3.93306 1.41395C4.05027 1.2983 4.20924 1.23333 4.375 1.23333H20.625C20.7908 1.23333 20.9497 1.2983 21.0669 1.41395C21.1842 1.5296 21.25 1.68645 21.25 1.85V3.7H3.75V1.85ZM1.25 33.9167V9.82967C1.2508 9.54264 1.31927 9.25974 1.45 9.00333L3.5125 4.93333H21.4875L23.55 9.00333C23.6807 9.25974 23.7492 9.54264 23.75 9.82967V33.9167C23.75 34.4073 23.5525 34.8779 23.2008 35.2248C22.8492 35.5718 22.3723 35.7667 21.875 35.7667H3.125C2.62772 35.7667 2.15081 35.5718 1.79917 35.2248C1.44754 34.8779 1.25 34.4073 1.25 33.9167Z" fill="#3F8A93"/>
<path d="M4.375 30.8334H20.625V9.8667H4.375V30.8334ZM5.625 11.1H19.375V29.6H5.625V11.1Z" fill="#3F8A93"/>
<path d="M14.375 16.65H10.625C9.63044 16.65 8.67661 17.0398 7.97335 17.7337C7.27009 18.4276 6.875 19.3687 6.875 20.35C6.875 21.3313 7.27009 22.2724 7.97335 22.9663C8.67661 23.6602 9.63044 24.05 10.625 24.05H14.375C15.3696 24.05 16.3234 23.6602 17.0267 22.9663C17.7299 22.2724 18.125 21.3313 18.125 20.35C18.125 19.3687 17.7299 18.4276 17.0267 17.7337C16.3234 17.0398 15.3696 16.65 14.375 16.65ZM10.625 17.8834H14.375C14.8113 17.886 15.2393 18.0012 15.6165 18.2175C15.9936 18.4339 16.3069 18.7439 16.525 19.1167H16.35C14.9751 19.1054 13.6075 19.3137 12.3 19.7334C11.1251 20.132 9.89243 20.3403 8.65 20.35H8.125C8.125 19.6958 8.38839 19.0684 8.85723 18.6058C9.32607 18.1432 9.96196 17.8834 10.625 17.8834ZM14.375 22.8167H10.625C10.1887 22.8141 9.76072 22.6989 9.38354 22.4825C9.00636 22.2662 8.69314 21.9562 8.475 21.5834H8.65C10.0249 21.5946 11.3925 21.3864 12.7 20.9667C13.8749 20.568 15.1076 20.3598 16.35 20.35H16.875C16.875 21.0042 16.6116 21.6316 16.1428 22.0942C15.6739 22.5568 15.038 22.8167 14.375 22.8167Z" fill="#3F8A93"/>
</svg>
