<svg width="120" height="120" viewBox="0 0 120 120" fill="none" xmlns="http://www.w3.org/2000/svg">
<rect width="120" height="120" fill="#F1F1F1"/>
<g clip-path="url(#clip0)">
<path d="M90.2893 45.086H72.4963V39.921H73.484C73.7454 39.9192 73.9956 39.8146 74.1805 39.6297C74.3653 39.4449 74.4699 39.1947 74.4717 38.9333V33.9877C74.4717 33.7257 74.3677 33.4745 74.1824 33.2893C73.9972 33.104 73.746 33 73.484 33H45.793C45.6631 32.9991 45.5342 33.024 45.4139 33.0733C45.2937 33.1226 45.1844 33.1953 45.0925 33.2872C45.0006 33.3791 44.9279 33.4884 44.8786 33.6086C44.8293 33.7289 44.8044 33.8577 44.8053 33.9877V38.9333C44.8053 39.1952 44.9094 39.4465 45.0946 39.6317C45.2798 39.8169 45.5311 39.921 45.793 39.921H46.7808V45.086H28.9946C28.732 45.086 28.4801 45.1899 28.2937 45.3749C28.1074 45.56 28.0018 45.8112 28 46.0738V51.0193C28.0018 51.2819 28.1074 51.5332 28.2937 51.7182C28.4801 51.9032 28.732 52.0071 28.9946 52.0071H30.0166V86.6122C30.0166 86.8742 30.1207 87.1254 30.3059 87.3107C30.4912 87.4959 30.7424 87.6 31.0044 87.6H88.3207C88.5821 87.5982 88.8323 87.4935 89.0171 87.3087C89.202 87.1238 89.3066 86.8736 89.3084 86.6122V52.0071H90.2961C90.5581 52.0071 90.8093 51.903 90.9946 51.7178C91.1798 51.5325 91.2839 51.2813 91.2839 51.0193V46.0738C91.2839 45.9435 91.2581 45.8145 91.208 45.6942C91.158 45.5739 91.0846 45.4647 90.9922 45.3729C90.8997 45.2811 90.79 45.2085 90.6694 45.1593C90.5487 45.11 90.4196 45.0851 90.2893 45.086ZM46.7876 34.9754H72.4963V37.9455H46.7876V34.9754ZM30.0166 47.0615H46.8219V50.0316H30.0166V47.0615ZM31.9921 52.0071H46.8219V85.6176H31.9578L31.9921 52.0071ZM48.7974 39.921H70.4865V85.6245H66.5355V81.6667H67.5233C67.6532 81.6676 67.7821 81.6427 67.9023 81.5933C68.0226 81.544 68.1318 81.4713 68.2237 81.3794C68.3156 81.2875 68.3884 81.1783 68.4377 81.058C68.487 80.9378 68.5119 80.8089 68.511 80.6789V76.7211C68.511 76.4592 68.4069 76.2079 68.2217 76.0227C68.0365 75.8375 67.7852 75.7334 67.5233 75.7334H51.7332C51.4712 75.7334 51.22 75.8375 51.0347 76.0227C50.8495 76.2079 50.7454 76.4592 50.7454 76.7211V80.6789C50.7445 80.8089 50.7694 80.9378 50.8188 81.058C50.8681 81.1783 50.9408 81.2875 51.0327 81.3794C51.1246 81.4713 51.2338 81.544 51.3541 81.5933C51.4743 81.6427 51.6032 81.6676 51.7332 81.6667H52.7209V85.6245H48.7631L48.7974 39.921ZM52.7552 79.7049V77.7294H66.5973V79.7049H52.7552ZM64.6218 81.6804V85.6382H54.7101V81.6804H64.6218ZM87.3604 85.6382H72.4963V52.0277H87.326L87.3604 85.6382ZM89.3358 50.0453H72.5306V47.0752H89.3358V50.0453Z" fill="#1D4045"/>
<path d="M76.4467 71.7825H82.38C82.642 71.7825 82.8932 71.6784 83.0785 71.4932C83.2637 71.3079 83.3678 71.0567 83.3678 70.7947V66.8369C83.3678 66.575 83.2637 66.3237 83.0785 66.1385C82.8932 65.9532 82.642 65.8492 82.38 65.8492H76.4467C76.1853 65.851 75.9351 65.9556 75.7503 66.1405C75.5654 66.3253 75.4608 66.5755 75.459 66.8369V70.7947C75.4608 71.0562 75.5654 71.3063 75.7503 71.4912C75.9351 71.676 76.1853 71.7807 76.4467 71.7825ZM77.4345 67.8247H81.3923V69.8001H77.4345V67.8247Z" fill="#1D4045"/>
<path d="M76.4467 81.6667H82.38C82.51 81.6676 82.6388 81.6427 82.7591 81.5934C82.8793 81.544 82.9886 81.4713 83.0805 81.3794C83.1724 81.2875 83.2451 81.1783 83.2944 81.058C83.3437 80.9378 83.3687 80.8089 83.3677 80.6789V76.7211C83.3677 76.4592 83.2637 76.2079 83.0785 76.0227C82.8932 75.8375 82.642 75.7334 82.38 75.7334H76.4467C76.1853 75.7352 75.9351 75.8398 75.7503 76.0247C75.5654 76.2095 75.4608 76.4597 75.459 76.7211V80.6789C75.459 80.9409 75.563 81.1921 75.7483 81.3774C75.9335 81.5626 76.1848 81.6667 76.4467 81.6667ZM77.4345 77.7157H81.3923V79.6912H77.4345V77.7157Z" fill="#1D4045"/>
<path d="M41.8429 65.8492H35.9165C35.6539 65.8492 35.4019 65.953 35.2156 66.1381C35.0293 66.3231 34.9237 66.5743 34.9219 66.8369V70.7947C34.9237 71.0573 35.0293 71.3086 35.2156 71.4936C35.4019 71.6786 35.6539 71.7825 35.9165 71.7825H41.8429C42.1055 71.7825 42.3575 71.6786 42.5438 71.4936C42.7301 71.3086 42.8357 71.0573 42.8375 70.7947V66.8369C42.8357 66.5743 42.7301 66.3231 42.5438 66.1381C42.3575 65.953 42.1055 65.8492 41.8429 65.8492ZM40.8552 69.8001H36.8768V67.8247H40.8277L40.8552 69.8001Z" fill="#1D4045"/>
<path d="M41.8429 75.754H35.9165C35.6539 75.754 35.4019 75.8579 35.2156 76.0429C35.0293 76.228 34.9237 76.4792 34.9219 76.7418V80.6996C34.9219 80.8299 34.9476 80.9589 34.9977 81.0792C35.0478 81.1994 35.1211 81.3086 35.2136 81.4004C35.306 81.4923 35.4158 81.5649 35.5364 81.6141C35.657 81.6633 35.7862 81.6882 35.9165 81.6873H41.8429C41.9732 81.6882 42.1024 81.6633 42.223 81.6141C42.3436 81.5649 42.4533 81.4923 42.5458 81.4004C42.6382 81.3086 42.7116 81.1994 42.7617 81.0792C42.8117 80.9589 42.8375 80.8299 42.8375 80.6996V76.7418C42.8357 76.4792 42.7301 76.228 42.5438 76.0429C42.3575 75.8579 42.1055 75.754 41.8429 75.754ZM40.8552 79.7118H36.8768V77.7364H40.8277L40.8552 79.7118Z" fill="#1D4045"/>
<path d="M62.6046 65.8492H56.6713C56.4099 65.851 56.1597 65.9556 55.9749 66.1405C55.79 66.3253 55.6854 66.5755 55.6836 66.8369V70.7947C55.6854 71.0562 55.79 71.3063 55.9749 71.4912C56.1597 71.676 56.4099 71.7807 56.6713 71.7825H62.6046C62.8666 71.7825 63.1178 71.6784 63.303 71.4932C63.4883 71.3079 63.5924 71.0567 63.5924 70.7947V66.8369C63.5924 66.575 63.4883 66.3237 63.303 66.1385C63.1178 65.9532 62.8666 65.8492 62.6046 65.8492ZM61.6169 69.8001H57.6659V67.8247H61.6169V69.8001Z" fill="#1D4045"/>
<path d="M62.6046 55.9649H56.6713C56.4093 55.9649 56.1581 56.069 55.9729 56.2542C55.7876 56.4395 55.6836 56.6907 55.6836 56.9527V60.9036C55.6836 61.1656 55.7876 61.4168 55.9729 61.6021C56.1581 61.7873 56.4093 61.8914 56.6713 61.8914H62.6046C62.7346 61.8923 62.8634 61.8673 62.9837 61.818C63.1039 61.7687 63.2132 61.696 63.3051 61.6041C63.397 61.5122 63.4697 61.4029 63.519 61.2827C63.5683 61.1624 63.5933 61.0336 63.5924 60.9036V56.9527C63.5933 56.8227 63.5683 56.6939 63.519 56.5736C63.4697 56.4534 63.397 56.3441 63.3051 56.2522C63.2132 56.1603 63.1039 56.0876 62.9837 56.0383C62.8634 55.9889 62.7346 55.964 62.6046 55.9649ZM61.6169 59.9159H57.6659V57.9198H61.6169V59.9159Z" fill="#1D4045"/>
<path d="M62.6046 45.5731H56.6713C56.4099 45.5749 56.1597 45.6796 55.9749 45.8644C55.79 46.0493 55.6854 46.2995 55.6836 46.5609V50.5187C55.6854 50.7801 55.79 51.0303 55.9749 51.2151C56.1597 51.4 56.4099 51.5046 56.6713 51.5064H62.6046C62.8666 51.5064 63.1178 51.4023 63.303 51.2171C63.4883 51.0319 63.5924 50.7806 63.5924 50.5187V46.5677C63.5933 46.4374 63.5684 46.3083 63.5191 46.1876C63.4699 46.067 63.3973 45.9573 63.3055 45.8648C63.2137 45.7724 63.1045 45.699 62.9842 45.649C62.8639 45.5989 62.7349 45.5731 62.6046 45.5731ZM61.6169 49.5309H57.6659V47.5486H61.6169V49.5309Z" fill="#1D4045"/>
<path d="M76.4467 61.8914H82.38C82.51 61.8923 82.6388 61.8673 82.7591 61.818C82.8793 61.7687 82.9886 61.696 83.0805 61.6041C83.1724 61.5122 83.2451 61.4029 83.2944 61.2827C83.3437 61.1624 83.3687 61.0336 83.3677 60.9036V56.9527C83.3687 56.8227 83.3437 56.6939 83.2944 56.5736C83.2451 56.4534 83.1724 56.3441 83.0805 56.2522C82.9886 56.1603 82.8793 56.0876 82.7591 56.0383C82.6388 55.9889 82.51 55.964 82.38 55.9649H76.4467C76.1848 55.9649 75.9335 56.069 75.7483 56.2542C75.563 56.4395 75.459 56.6907 75.459 56.9527V60.9036C75.459 61.1656 75.563 61.4168 75.7483 61.6021C75.9335 61.7873 76.1848 61.8914 76.4467 61.8914ZM77.4345 57.9404H81.3923V59.9159H77.4345V57.9404Z" fill="#1D4045"/>
<path d="M41.8429 55.9649H35.9165C35.7862 55.964 35.657 55.9889 35.5364 56.0381C35.4158 56.0874 35.306 56.16 35.2136 56.2518C35.1211 56.3436 35.0478 56.4528 34.9977 56.5731C34.9476 56.6934 34.9219 56.8224 34.9219 56.9527V60.9036C34.9219 61.0339 34.9476 61.1629 34.9977 61.2832C35.0478 61.4035 35.1211 61.5127 35.2136 61.6045C35.306 61.6963 35.4158 61.7689 35.5364 61.8182C35.657 61.8674 35.7862 61.8923 35.9165 61.8914H41.8429C41.9732 61.8923 42.1024 61.8674 42.223 61.8182C42.3436 61.7689 42.4533 61.6963 42.5458 61.6045C42.6382 61.5127 42.7116 61.4035 42.7617 61.2832C42.8117 61.1629 42.8375 61.0339 42.8375 60.9036V56.9527C42.8375 56.8224 42.8117 56.6934 42.7617 56.5731C42.7116 56.4528 42.6382 56.3436 42.5458 56.2518C42.4533 56.16 42.3436 56.0874 42.223 56.0381C42.1024 55.9889 41.9732 55.964 41.8429 55.9649ZM40.8552 59.9159H36.8768V57.9198H40.8277L40.8552 59.9159Z" fill="#1D4045"/>
</g>
<defs>
<clipPath id="clip0">
<rect width="63.277" height="54.6" fill="white" transform="translate(28 33)"/>
</clipPath>
</defs>
</svg>
