<svg width="120" height="120" viewBox="0 0 120 120" fill="none" xmlns="http://www.w3.org/2000/svg">
<rect width="120" height="120" fill="#F1F1F1"/>
<path fill-rule="evenodd" clip-rule="evenodd" d="M67.2722 65.1357L76.4402 57.1739L64.352 56.0818L59.5338 43.8188L54.8433 56.0818L42.5543 57.1068L51.9292 65.1357L49.1551 77.0326L59.5946 70.7364L70.0159 77.0997L67.2722 65.1357ZM81.3436 56.8688L70.7398 66.2705L73.8425 80.2234C74.0676 81.7609 73.1307 82.4503 71.8288 81.6876L59.6007 74.3909L47.3665 81.6205C45.9186 82.4015 45.152 81.6266 45.3528 80.1563L48.4555 66.2705L37.6266 56.8017C36.6045 55.6913 36.8114 54.6908 38.4053 54.4345L52.7079 53.1289L58.2988 39.0295C58.9436 37.6568 60.1178 37.6568 60.7627 39.0295L66.4934 53.1289L80.5953 54.5016C82.2257 54.7762 82.3839 55.8317 81.3436 56.8688Z" fill="#1D4045"/>
</svg>
