<svg width="120" height="120" viewBox="0 0 120 120" fill="none" xmlns="http://www.w3.org/2000/svg">
<rect width="120" height="120" fill="#F1F1F1"/>
<path fill-rule="evenodd" clip-rule="evenodd" d="M59 65.5V76.5H76V65.5H59ZM73.5 68H61.5V74H73.5V68Z" fill="#1D4045"/>
<path fill-rule="evenodd" clip-rule="evenodd" d="M81 81.5H39V38H81V81.5ZM68 62.5C69.6356 62.5 71.0878 61.7147 72 60.5005C72.9122 61.7147 74.3644 62.5 76 62.5C76.9107 62.5 77.7646 62.2565 78.5 61.8311V79H56V65.5H46V79H41.5V61.8311C42.2354 62.2565 43.0893 62.5 44 62.5C45.6356 62.5 47.0878 61.7147 48 60.5005C48.9122 61.7147 50.3644 62.5 52 62.5C53.6356 62.5 55.0878 61.7147 56 60.5005C56.9122 61.7147 58.3644 62.5 60 62.5C61.6356 62.5 63.0878 61.7147 64 60.5005C64.9122 61.7147 66.3644 62.5 68 62.5ZM41.5 57.5C41.5 58.8807 42.6193 60 44 60C45.3807 60 46.5 58.8807 46.5 57.5V56H41.5V57.5ZM49.5 56V57.5C49.5 58.8807 50.6193 60 52 60C53.3807 60 54.5 58.8807 54.5 57.5V56H49.5ZM57.5 56V57.5C57.5 58.8807 58.6193 60 60 60C61.3807 60 62.5 58.8807 62.5 57.5V56H57.5ZM65.5 56H70.5V57.5C70.5 58.8807 69.3807 60 68 60C66.6193 60 65.5 58.8807 65.5 57.5V56ZM73.5 56V57.5C73.5 58.8807 74.6193 60 76 60C77.3807 60 78.5 58.8807 78.5 57.5V56H73.5ZM78.5 53.5V40.5H73.5V53.5H78.5ZM71 53.5V40.5H65.5V53.5H71ZM63 53.5V40.5H57.5V53.5H63ZM55 53.5V40.5H49.5V53.5H55ZM47 53.5V40.5H41.5V53.5H47ZM48.5 79H53.5V68H48.5V79Z" fill="#1D4045"/>
</svg>
